<svg id="Layer_1" data-name="Layer 1" xmlns="http://www.w3.org/2000/svg" viewBox="0 0 35.6 35.6"><defs><style>.cls-1{fill:#57cd7c;fill-rule:evenodd;}.cls-2{fill:#fff;}</style></defs><title>linkedin_icon</title><path class="cls-1" d="M21.53,2.84A17.8,17.8,0,1,1,3.73,20.63,17.79,17.79,0,0,1,21.53,2.84Z" transform="translate(-3.73 -2.84)"/><path class="cls-2" d="M29.67,22v5.95h-3.5V22.37c0-1.39-.51-2.34-1.78-2.34a1.92,1.92,0,0,0-1.8,1.26,2.38,2.38,0,0,0-.11.84v5.8H19s.05-9.41,0-10.38h3.51V19l0,0h0v0a3.47,3.47,0,0,1,3.16-1.72C27.94,17.3,29.67,18.79,29.67,22ZM15.31,12.54a1.8,1.8,0,1,0-.05,3.59h0a1.8,1.8,0,1,0,0-3.59ZM13.53,27.93H17V17.55H13.53Z" transform="translate(-3.73 -2.84)"/></svg>