<?xml version="1.0" encoding="utf-8"?>
<!-- Generator: Adobe Illustrator 22.0.1, SVG Export Plug-In . SVG Version: 6.00 Build 0)  -->
<svg version="1.1" id="Layer_1" xmlns="http://www.w3.org/2000/svg" xmlns:xlink="http://www.w3.org/1999/xlink" x="0px" y="0px"
	 viewBox="0 0 650.3 768" height="70" width="70" style="enable-background:new 0 0 650.3 768;" xml:space="preserve">
<style type="text/css">
	.st0{fill:#FFFFFF;}
	.st1{fill:#173839;}
</style>
<g>
	<path class="st0" d="M325,615.6c-13.3,0-25.9-4.9-37.4-14.6c-57.8-48.9-99.4-99.3-127.2-154.2c-19.1-37.6-27.7-72.5-26.5-106.6
		c2.8-76.2,40.5-134.7,109-169.2c26.8-13.5,54.5-18.4,71.5-18.6l0.4,0c99.7,0,181.2,63.9,198.3,155.3c7.5,40.1,2.2,80.4-16,123.1
		c-14.7,34.5-35.6,66.9-65.7,102.2c-21.2,24.9-44.5,47.8-69.1,68.2C350.8,610.7,338.2,615.6,325,615.6
		C325,615.6,325,615.6,325,615.6z"/>
	<path class="st1" d="M475.7,314.6c-13.3-71.5-77.2-124.2-160.8-124.2c-12.5,0.1-34.5,4.3-54.8,14.6c-56,28.2-85.7,73.9-88.1,136.6
		c-1.2,31.3,8.4,60.4,22.4,88c28.5,56.3,70,101.9,117.8,142.4c8.9,7.6,16.8,7.4,25.8-0.1c23.3-19.3,44.8-40.6,64.5-63.6
		c24-28.1,45-58.2,59.6-92.4C476,383.4,482.3,349.9,475.7,314.6z M430.9,399.9c-13.6,33.1-34.3,61.7-57.6,88.5
		c-14.8,17.1-30.9,33-48.1,48.3c-13.1-11.3-25.1-23.3-36.7-35.7c-24.4-26.1-46.2-54.1-62.4-86.2c-10.6-21.1-18.6-43.1-19-66.8
		c-0.8-47.6,19.4-84.7,61.2-107.8c69.3-38.3,153.6,0,172,77.1C447.1,346,441.7,373.4,430.9,399.9z"/>
	<path class="st1" d="M336.5,373.1c0-3.3,0-5.8,0-8.4c0-18.6-0.1-37.3,0-55.9c0-7.9,6-13.7,13.7-13.6c7.1,0,13.6,6.1,13.7,13.2
		c0.1,25.8,0,51.7,0.1,77.5c0,4.3-2,7.3-5.4,9.4c-4.9,3.2-10.3,5.1-16.3,5.1c-19,0-38.1,0-57.1,0c-9,0-14.8-5.5-14.8-13.7
		c0-8.2,5.8-13.7,14.7-13.7C301.9,373.1,318.7,373.1,336.5,373.1z"/>
</g>
</svg>
